<?xml version="1.0" standalone="no"?><!-- Generator: Gravit.io --><svg xmlns="http://www.w3.org/2000/svg" xmlns:xlink="http://www.w3.org/1999/xlink" style="isolation:isolate" viewBox="0 0 512 512" width="512" height="512"><defs><clipPath id="_clipPath_SvzHH1vLQumMenq6xv9SS0yASN0sq3TI"><rect width="512" height="512"/></clipPath></defs><g clip-path="url(#_clipPath_SvzHH1vLQumMenq6xv9SS0yASN0sq3TI)"><path d=" M 427.808 88.92 L 158.149 358.605 L 45.863 246.267 L 8.12 284.036 L 139.264 415.181 L 158.123 433.2 L 176.981 415.181 L 465.499 126.663 L 427.808 88.92 Z " fill="rgb(0,0,0)" fill-opacity="0.6"/><defs><filter id="NHWYHH3Ana2D7WCRknf9Xb02WDq8EUKF" x="-200%" y="-200%" width="400%" height="400%"><feOffset xmlns="http://www.w3.org/2000/svg" in="SourceAlpha" result="offOut" dx="0" dy="3"/><feGaussianBlur xmlns="http://www.w3.org/2000/svg" in="offOut" result="blurOut" stdDeviation="5"/><feComponentTransfer xmlns="http://www.w3.org/2000/svg" in="blurOut" result="opacOut"><feFuncA xmlns="http://www.w3.org/2000/svg" type="table" tableValues="0 0.5"/></feComponentTransfer><feBlend xmlns="http://www.w3.org/2000/svg" in="SourceGraphic" in2="opacOut" mode="normal"/></filter></defs><g filter="url(#NHWYHH3Ana2D7WCRknf9Xb02WDq8EUKF)"><path d=" M 83.34 151.05 L 429.94 151.05 C 438.108 151.05 444.74 157.682 444.74 165.85 L 444.74 347.15 C 444.74 355.318 438.108 361.95 429.94 361.95 L 83.34 361.95 C 75.172 361.95 68.54 355.318 68.54 347.15 L 68.54 165.85 C 68.54 157.682 75.172 151.05 83.34 151.05 M 181.194 172.14 L 242.406 172.14 C 244.39 172.14 246 173.75 246 175.734 L 246 236.946 C 246 238.93 244.39 240.54 242.406 240.54 L 181.194 240.54 C 179.21 240.54 177.6 238.93 177.6 236.946 L 177.6 175.734 C 177.6 173.75 179.21 172.14 181.194 172.14 M 83.34 151.05 M 270.874 172.14 L 332.086 172.14 C 334.07 172.14 335.68 173.75 335.68 175.734 L 335.68 236.946 C 335.68 238.93 334.07 240.54 332.086 240.54 L 270.874 240.54 C 268.89 240.54 267.28 238.93 267.28 236.946 L 267.28 175.734 C 267.28 173.75 268.89 172.14 270.874 172.14 M 83.34 151.05 M 360.554 172.14 L 421.766 172.14 C 423.75 172.14 425.36 173.75 425.36 175.734 L 425.36 236.946 C 425.36 238.93 423.75 240.54 421.766 240.54 L 360.554 240.54 C 358.57 240.54 356.96 238.93 356.96 236.946 L 356.96 175.734 C 356.96 173.75 358.57 172.14 360.554 172.14 M 83.34 151.05 M 91.514 172.14 L 152.726 172.14 C 154.71 172.14 156.32 173.75 156.32 175.734 L 156.32 236.946 C 156.32 238.93 154.71 240.54 152.726 240.54 L 91.514 240.54 C 89.53 240.54 87.92 238.93 87.92 236.946 L 87.92 175.734 C 87.92 173.75 89.53 172.14 91.514 172.14 M 83.34 151.05 M 183.45 267.9 L 330.97 267.9 C 333.989 267.9 336.44 270.351 336.44 273.37 L 336.44 330.83 C 336.44 333.849 333.989 336.3 330.97 336.3 L 183.45 336.3 C 180.431 336.3 177.98 333.849 177.98 330.83 L 177.98 273.37 C 177.98 270.351 180.431 267.9 183.45 267.9 M 83.34 151.05 M 360.554 267.9 L 421.766 267.9 C 423.75 267.9 425.36 269.51 425.36 271.494 L 425.36 332.706 C 425.36 334.69 423.75 336.3 421.766 336.3 L 360.554 336.3 C 358.57 336.3 356.96 334.69 356.96 332.706 L 356.96 271.494 C 356.96 269.51 358.57 267.9 360.554 267.9 M 83.34 151.05 Z  M 91.514 267.9 L 152.726 267.9 C 154.71 267.9 156.32 269.51 156.32 271.494 L 156.32 332.706 C 156.32 334.69 154.71 336.3 152.726 336.3 L 91.514 336.3 C 89.53 336.3 87.92 334.69 87.92 332.706 L 87.92 271.494 C 87.92 269.51 89.53 267.9 91.514 267.9 Z " fill-rule="evenodd" fill="rgb(255,255,255)"/></g></g></svg>