<?xml version="1.0" standalone="no"?>
<!DOCTYPE svg PUBLIC "-//W3C//DTD SVG 20010904//EN"
 "http://www.w3.org/TR/2001/REC-SVG-20010904/DTD/svg10.dtd">
<svg version="1.0" xmlns="http://www.w3.org/2000/svg"
 width="700.000000pt" height="700.000000pt" viewBox="0 0 700.000000 700.000000"
 preserveAspectRatio="xMidYMid meet">
<metadata>
Created by potrace 1.11, written by Peter Selinger 2001-2013
</metadata>
<g transform="translate(0.000000,700.000000) scale(0.100000,-0.100000)"
fill="#000000" stroke="none">
<path d="M3305 6990 c-1280 -68 -2425 -836 -2976 -1995 -168 -354 -274 -730
-319 -1130 -16 -142 -13 -629 5 -780 113 -965 624 -1840 1415 -2422 477 -351
1044 -573 1650 -649 160 -20 674 -19 838 1 1424 176 2595 1197 2962 2580 42
157 76 337 96 510 20 179 23 552 6 725 -36 345 -119 680 -243 982 -570 1387
-1942 2257 -3434 2178z m2650 -2085 c46 -23 66 -42 90 -79 l30 -49 3 -1266 c2
-1148 1 -1270 -14 -1309 -21 -56 -57 -98 -108 -125 l-41 -22 -2390 -3 c-2198
-2 -2393 -1 -2434 14 -57 22 -110 70 -133 120 -17 39 -18 105 -18 1309 0 1252
0 1268 20 1309 28 59 70 96 132 117 51 18 145 18 2429 16 l2375 -2 59 -30z"/>
<path d="M1243 4640 c-12 -5 -26 -18 -32 -29 -7 -13 -11 -160 -11 -436 l0
-416 25 -24 24 -25 419 0 c398 0 421 1 443 19 l24 19 0 431 c0 400 -1 432 -18
448 -16 17 -49 18 -435 20 -229 1 -427 -2 -439 -7z"/>
<path d="M2470 4643 c-39 -14 -40 -23 -40 -463 0 -352 2 -430 14 -446 14 -18
32 -19 441 -22 373 -2 431 -1 451 13 l24 15 0 439 c0 396 -2 440 -17 452 -13
11 -97 14 -437 16 -232 1 -428 -1 -436 -4z"/>
<path d="M3690 4637 l-25 -13 -3 -439 c-2 -439 -2 -440 19 -457 19 -17 56 -18
445 -18 411 0 425 1 444 20 19 19 20 33 20 448 0 423 0 429 -21 448 -20 18
-44 19 -438 22 -323 1 -422 -1 -441 -11z"/>
<path d="M4920 4643 c-39 -14 -40 -23 -40 -463 0 -352 2 -430 14 -446 14 -18
32 -19 441 -22 373 -2 431 -1 451 13 l24 15 0 439 c0 396 -2 440 -17 452 -13
11 -97 14 -437 16 -232 1 -428 -1 -436 -4z"/>
<path d="M1225 3315 l-25 -24 0 -424 c0 -350 2 -427 14 -443 14 -18 30 -19
450 -19 405 0 437 1 453 18 17 16 18 48 18 448 l0 431 -24 19 c-22 18 -45 19
-443 19 l-419 0 -24 -25z"/>
<path d="M2484 3326 c-17 -8 -34 -21 -38 -31 -3 -9 -6 -202 -6 -428 1 -444 0
-436 54 -457 18 -7 358 -10 1022 -10 1083 0 1052 -2 1074 55 13 35 13 795 0
830 -22 57 10 55 -1077 55 -815 -1 -1004 -3 -1029 -14z"/>
<path d="M4920 3333 c-39 -14 -40 -23 -40 -463 0 -352 2 -430 14 -446 14 -18
32 -19 441 -22 373 -2 431 -1 451 13 l24 15 0 440 0 439 -22 15 c-20 14 -77
16 -438 15 -228 0 -422 -3 -430 -6z"/>
</g>
</svg>
